<svg width="407" height="83" viewBox="0 0 407 83" fill="none" xmlns="http://www.w3.org/2000/svg">
<rect width="407" height="83" fill="#116611"/>
<path d="M25.816 24.072L37.632 24.24C43.7547 24.24 48.2347 24.016 51.072 23.568C51.4827 24.352 51.688 25.248 51.688 26.256C51.688 27.264 51.24 28.1787 50.344 29C49.448 29.784 48.3653 30.176 47.096 30.176L40.656 29.448C40.656 29.7093 40.5627 30.8667 40.376 32.92C39.8533 37.96 39.592 43.0187 39.592 48.096C39.592 53.1733 39.984 58.2507 40.768 63.328C39.536 63.776 38.248 64 36.904 64C35.56 64 34.4027 63.6267 33.432 62.88C32.4613 62.096 31.976 60.9387 31.976 59.408C31.976 57.84 32.1627 55.096 32.536 51.176C32.9093 47.256 33.096 43.448 33.096 39.752C33.096 36.0187 32.9093 32.5467 32.536 29.336C28.0187 29.56 24.4907 30.1947 21.952 31.24C21.504 30.3813 21.28 29.4293 21.28 28.384C21.28 27.3013 21.7093 26.312 22.568 25.416C23.4267 24.52 24.5093 24.072 25.816 24.072ZM56.7144 24.072L68.5304 24.24C74.6531 24.24 79.1331 24.016 81.9704 23.568C82.3811 24.352 82.5864 25.248 82.5864 26.256C82.5864 27.264 82.1384 28.1787 81.2424 29C80.3464 29.784 79.2638 30.176 77.9944 30.176L71.5544 29.448C71.5544 29.7093 71.4611 30.8667 71.2744 32.92C70.7518 37.96 70.4904 43.0187 70.4904 48.096C70.4904 53.1733 70.8824 58.2507 71.6664 63.328C70.4344 63.776 69.1464 64 67.8024 64C66.4584 64 65.3011 63.6267 64.3304 62.88C63.3598 62.096 62.8744 60.9387 62.8744 59.408C62.8744 57.84 63.0611 55.096 63.4344 51.176C63.8078 47.256 63.9944 43.448 63.9944 39.752C63.9944 36.0187 63.8078 32.5467 63.4344 29.336C58.9171 29.56 55.3891 30.1947 52.8504 31.24C52.4024 30.3813 52.1784 29.4293 52.1784 28.384C52.1784 27.3013 52.6078 26.312 53.4664 25.416C54.3251 24.52 55.4078 24.072 56.7144 24.072ZM166.4 23.568C169.648 23.568 172.485 24.52 174.912 26.424C177.338 28.328 178.552 30.792 178.552 33.816C178.552 35.4213 178.104 36.7467 177.208 37.792C176.312 38.8373 175.21 39.36 173.904 39.36C172.597 39.36 171.552 39.192 170.768 38.856C170.88 38.2587 170.936 37.624 170.936 36.952C170.898 34.6 170.32 32.696 169.2 31.24C168.08 29.7467 166.437 29 164.272 29C162.144 29 160.165 29.6907 158.336 31.072C157.253 32.64 156.413 34.6933 155.816 37.232C155.218 39.7707 154.92 42.272 154.92 44.736C154.92 48.8427 155.704 52.296 157.272 55.096C158.877 57.8587 161.36 59.24 164.72 59.24C167.818 59.24 169.909 58.064 170.992 55.712C172 53.6587 172.504 50.9333 172.504 47.536C174.408 47.536 175.994 47.8907 177.264 48.6C178.533 49.272 179.168 50.392 179.168 51.96C179.168 55.6187 177.562 58.6613 174.352 61.088C171.141 63.4773 167.52 64.672 163.488 64.672C158.224 64.672 154.229 62.936 151.504 59.464C148.778 55.9547 147.416 51.2133 147.416 45.24C147.416 39.2667 149.114 34.1707 152.512 29.952C155.946 25.696 160.576 23.568 166.4 23.568ZM192.513 63.328C191.318 63.776 190.049 64 188.705 64C187.361 64 186.185 63.5707 185.177 62.712C184.206 61.8533 183.721 60.6773 183.721 59.184C183.721 57.6907 183.907 54.8347 184.281 50.616C184.654 46.36 184.841 42.9627 184.841 40.424C184.841 33.8907 184.449 28.72 183.665 24.912C184.859 24.464 186.129 24.24 187.473 24.24C188.817 24.24 189.974 24.6693 190.945 25.528C191.953 26.3867 192.457 27.4507 192.457 28.72C192.457 29.952 192.401 31.1467 192.289 32.304C192.214 33.4613 192.102 34.7867 191.953 36.28C191.803 37.7733 191.691 39.08 191.617 40.2C193.11 40.3493 195.686 40.424 199.345 40.424C203.003 40.424 205.822 40.2747 207.801 39.976C207.801 34.04 207.409 28.9067 206.625 24.576C207.819 24.128 209.089 23.904 210.433 23.904C211.777 23.904 212.934 24.3333 213.905 25.192C214.913 26.0507 215.417 27.2453 215.417 28.776C215.417 30.2693 215.23 32.9387 214.857 36.784C214.483 40.6293 214.297 43.7093 214.297 46.024C214.297 53.3413 214.689 59.2213 215.473 63.664C214.278 64.112 213.009 64.336 211.665 64.336C210.321 64.336 209.145 63.9067 208.137 63.048C207.166 62.1893 206.681 61.0507 206.681 59.632C206.681 58.2133 206.83 55.8987 207.129 52.688C207.427 49.4773 207.614 47.2747 207.689 46.08C204.03 45.8187 198.579 45.688 191.337 45.688V47.144C191.337 53.752 191.729 59.1467 192.513 63.328ZM242.267 45.408L248.259 44.96C250.499 44.96 251.619 46.0987 251.619 48.376C251.619 49.6827 251.451 51.7173 251.115 54.48C250.779 57.2427 250.611 59.4827 250.611 61.2C249.678 61.3493 247.587 61.9093 244.339 62.88C241.129 63.8507 238.441 64.336 236.275 64.336C230.974 64.336 226.961 62.6933 224.235 59.408C221.547 56.1227 220.203 51.6427 220.203 45.968C220.203 41.936 220.931 38.24 222.387 34.88C223.881 31.52 226.083 28.7947 228.995 26.704C231.907 24.6133 235.118 23.568 238.627 23.568C242.174 23.568 245.123 24.3893 247.475 26.032C249.865 27.6747 251.059 29.896 251.059 32.696C251.059 34.264 250.593 35.5893 249.659 36.672C248.763 37.7173 247.606 38.24 246.187 38.24C244.769 38.24 243.779 38.072 243.219 37.736C243.331 37.064 243.387 36.392 243.387 35.72C243.387 33.7413 242.827 32.136 241.707 30.904C240.587 29.6347 239.001 29 236.947 29C234.894 29 232.953 29.6907 231.123 31.072C230.041 32.6027 229.201 34.6933 228.603 37.344C228.006 39.9947 227.707 42.5707 227.707 45.072C227.707 49.104 228.491 52.4267 230.059 55.04C231.627 57.616 234.11 58.904 237.507 58.904C240.009 58.904 242.342 58.176 244.507 56.72C244.657 55.264 244.731 53.1733 244.731 50.448C243.238 50.896 242.081 51.12 241.259 51.12C239.206 51.12 238.179 50.0373 238.179 47.872C238.179 46.9387 238.366 45.9493 238.739 44.904C239.747 45.24 240.923 45.408 242.267 45.408ZM257.542 36.168C258.737 35.832 259.932 35.664 261.126 35.664C262.358 35.664 263.404 36.0373 264.262 36.784C265.121 37.5307 265.55 38.5013 265.55 39.696C265.55 40.8533 265.345 42.888 264.934 45.8C264.561 48.6747 264.374 50.9147 264.374 52.52C264.374 56.7013 264.766 60.304 265.55 63.328C264.393 63.776 263.142 64 261.798 64C260.454 64 259.39 63.7013 258.606 63.104C257.822 62.4693 257.43 61.5733 257.43 60.416C257.43 59.2213 257.654 57.28 258.102 54.592C258.55 51.904 258.774 49.6827 258.774 47.928C258.774 43.2613 258.364 39.3413 257.542 36.168ZM258.27 23.512C259.577 22.9147 260.865 22.616 262.134 22.616C263.404 22.616 264.337 22.952 264.934 23.624C265.569 24.2587 265.886 25.2107 265.886 26.48C265.886 27.7493 265.457 28.8693 264.598 29.84C263.777 30.8107 262.694 31.296 261.35 31.296C258.588 31.296 257.206 29.8587 257.206 26.984C257.206 25.7147 257.561 24.5573 258.27 23.512ZM289.064 23.568C292.312 23.568 295.149 24.52 297.576 26.424C300.002 28.328 301.216 30.792 301.216 33.816C301.216 35.4213 300.768 36.7467 299.872 37.792C298.976 38.8373 297.874 39.36 296.568 39.36C295.261 39.36 294.216 39.192 293.432 38.856C293.544 38.2587 293.6 37.624 293.6 36.952C293.562 34.6 292.984 32.696 291.864 31.24C290.744 29.7467 289.101 29 286.936 29C284.808 29 282.829 29.6907 281 31.072C279.917 32.64 279.077 34.6933 278.48 37.232C277.882 39.7707 277.584 42.272 277.584 44.736C277.584 48.8427 278.368 52.296 279.936 55.096C281.541 57.8587 284.024 59.24 287.384 59.24C290.482 59.24 292.573 58.064 293.656 55.712C294.664 53.6587 295.168 50.9333 295.168 47.536C297.072 47.536 298.658 47.8907 299.928 48.6C301.197 49.272 301.832 50.392 301.832 51.96C301.832 55.6187 300.226 58.6613 297.016 61.088C293.805 63.4773 290.184 64.672 286.152 64.672C280.888 64.672 276.893 62.936 274.168 59.464C271.442 55.9547 270.08 51.2133 270.08 45.24C270.08 39.2667 271.778 34.1707 275.176 29.952C278.61 25.696 283.24 23.568 289.064 23.568ZM315.009 28.776C315.009 31.576 314.729 35.272 314.169 39.864C313.646 44.456 313.385 48.0027 313.385 50.504C313.385 53.0053 314.057 55.096 315.401 56.776C316.745 58.4187 318.742 59.24 321.393 59.24C322.475 59.24 323.782 58.9787 325.313 58.456C326.843 57.9333 328.057 57.2613 328.953 56.44C329.438 52.296 329.681 46.976 329.681 40.48C329.681 33.9467 329.214 28.6453 328.281 24.576C329.475 24.128 330.745 23.904 332.089 23.904C333.433 23.904 334.59 24.3333 335.561 25.192C336.569 26.0507 337.073 27.1707 337.073 28.552C337.073 29.9333 336.905 32.304 336.569 35.664C336.27 39.024 336.121 42.7947 336.121 46.976C336.121 51.12 336.307 54.7787 336.681 57.952C331.23 62.432 325.705 64.672 320.105 64.672C315.849 64.672 312.526 63.5893 310.137 61.424C307.785 59.2213 306.609 56.048 306.609 51.904C306.609 50.5973 306.721 48.2453 306.945 44.848C307.206 41.4133 307.337 38.912 307.337 37.344C307.337 31.7067 306.963 27.5627 306.217 24.912C307.411 24.464 308.681 24.24 310.025 24.24C311.369 24.24 312.526 24.6693 313.497 25.528C314.505 26.3867 315.009 27.4693 315.009 28.776ZM361.212 36.336C361.362 35.5893 361.436 34.824 361.436 34.04C361.436 30.4187 359.663 28.608 356.116 28.608C354.511 28.608 353.148 28.944 352.028 29.616C350.983 30.848 350.46 32.3227 350.46 34.04C350.46 35.16 350.946 36.1307 351.916 36.952C352.887 37.736 354.082 38.352 355.5 38.8C356.956 39.248 358.524 39.808 360.204 40.48C361.884 41.152 363.434 41.88 364.852 42.664C366.308 43.4107 367.522 44.5493 368.492 46.08C369.463 47.5733 369.948 49.3467 369.948 51.4C369.948 55.32 368.436 58.512 365.412 60.976C362.426 63.44 358.823 64.672 354.604 64.672C351.207 64.672 348.314 63.832 345.924 62.152C343.572 60.4347 342.396 58.0453 342.396 54.984C342.396 53.416 342.863 52.1093 343.796 51.064C344.767 49.9813 345.906 49.44 347.212 49.44C348.556 49.44 349.546 49.608 350.18 49.944C349.882 51.064 349.732 52.072 349.732 52.968C349.732 54.984 350.292 56.5893 351.412 57.784C352.57 58.9413 354.156 59.52 356.172 59.52C358.188 59.52 359.812 58.9973 361.044 57.952C362.276 56.9067 362.892 55.5253 362.892 53.808C362.892 52.0533 362.202 50.616 360.82 49.496C359.476 48.376 357.834 47.48 355.892 46.808C353.951 46.136 352.01 45.4267 350.068 44.68C348.127 43.9333 346.466 42.832 345.084 41.376C343.74 39.8827 343.068 38.016 343.068 35.776C343.068 32.2667 344.58 29.3547 347.604 27.04C350.666 24.7253 354.119 23.568 357.964 23.568C360.802 23.568 363.247 24.1467 365.3 25.304C367.391 26.424 368.436 28.1413 368.436 30.456C368.436 32.136 367.895 33.5733 366.812 34.768C365.73 35.9253 364.367 36.504 362.724 36.504C362.276 36.504 361.772 36.448 361.212 36.336Z" fill="#FAFAFA"/>
<rect x="91" y="22" width="49" height="8.72941" fill="url(#paint0_linear_2_61)"/>
<rect x="91" y="38.6353" width="32.5344" height="8.72941" fill="url(#paint1_linear_2_61)"/>
<rect x="91" y="55.2706" width="49" height="8.72941" fill="url(#paint2_linear_2_61)"/>
<circle cx="262" cy="27" r="5" fill="url(#paint3_linear_2_61)"/>
<path d="M238.136 71.566C238.165 71.4193 238.18 71.269 238.18 71.115C238.18 70.4037 237.832 70.048 237.135 70.048C236.82 70.048 236.552 70.114 236.332 70.246C236.127 70.488 236.024 70.7777 236.024 71.115C236.024 71.335 236.119 71.5257 236.31 71.687C236.501 71.841 236.735 71.962 237.014 72.05C237.3 72.138 237.608 72.248 237.938 72.38C238.268 72.512 238.572 72.655 238.851 72.809C239.137 72.9557 239.375 73.1793 239.566 73.48C239.757 73.7733 239.852 74.1217 239.852 74.525C239.852 75.295 239.555 75.922 238.961 76.406C238.374 76.89 237.667 77.132 236.838 77.132C236.171 77.132 235.602 76.967 235.133 76.637C234.671 76.2997 234.44 75.8303 234.44 75.229C234.44 74.921 234.532 74.6643 234.715 74.459C234.906 74.2463 235.129 74.14 235.386 74.14C235.65 74.14 235.844 74.173 235.969 74.239C235.91 74.459 235.881 74.657 235.881 74.833C235.881 75.229 235.991 75.5443 236.211 75.779C236.438 76.0063 236.75 76.12 237.146 76.12C237.542 76.12 237.861 76.0173 238.103 75.812C238.345 75.6067 238.466 75.3353 238.466 74.998C238.466 74.6533 238.33 74.371 238.059 74.151C237.795 73.931 237.472 73.755 237.091 73.623C236.71 73.491 236.328 73.3517 235.947 73.205C235.566 73.0583 235.239 72.842 234.968 72.556C234.704 72.2627 234.572 71.896 234.572 71.456C234.572 70.7667 234.869 70.1947 235.463 69.74C236.064 69.2853 236.743 69.058 237.498 69.058C238.055 69.058 238.536 69.1717 238.939 69.399C239.35 69.619 239.555 69.9563 239.555 70.411C239.555 70.741 239.449 71.0233 239.236 71.258C239.023 71.4853 238.756 71.599 238.433 71.599C238.345 71.599 238.246 71.588 238.136 71.566ZM242.751 77.132C241.944 77.132 241.35 76.8973 240.969 76.428C240.587 75.9513 240.397 75.2913 240.397 74.448C240.397 73.5973 240.65 72.8603 241.156 72.237C241.662 71.6137 242.311 71.302 243.103 71.302C244.731 71.302 245.545 72.2187 245.545 74.052C245.545 74.91 245.281 75.6397 244.753 76.241C244.225 76.835 243.557 77.132 242.751 77.132ZM241.959 72.512C241.827 72.9373 241.761 73.3627 241.761 73.788C241.761 74.2133 241.775 74.5433 241.805 74.778C241.834 75.0127 241.889 75.2473 241.97 75.482C242.138 75.9587 242.468 76.197 242.96 76.197C243.458 76.197 243.785 76.065 243.939 75.801C244.1 75.537 244.181 75.13 244.181 74.58C244.181 73.018 243.81 72.237 243.07 72.237C242.644 72.237 242.274 72.3287 241.959 72.512ZM246.982 75.207C246.982 75.075 246.949 74.217 246.883 72.633C246.524 72.655 246.238 72.7173 246.025 72.82C245.937 72.6587 245.893 72.49 245.893 72.314C245.893 72.138 245.955 71.995 246.08 71.885C246.205 71.7677 246.351 71.709 246.52 71.709C246.689 71.709 246.81 71.7127 246.883 71.72C246.92 70.8913 247.202 70.191 247.73 69.619C248.258 69.0397 248.922 68.75 249.721 68.75C250.168 68.75 250.546 68.8453 250.854 69.036C251.162 69.2267 251.316 69.509 251.316 69.883C251.316 70.147 251.217 70.3707 251.019 70.554C250.821 70.7373 250.586 70.829 250.315 70.829C250.256 70.829 250.183 70.8217 250.095 70.807C250.117 70.7117 250.128 70.6273 250.128 70.554C250.128 70.2973 250.073 70.092 249.963 69.938C249.853 69.7767 249.659 69.696 249.38 69.696C249.101 69.696 248.845 69.7767 248.61 69.938C248.463 70.136 248.346 70.411 248.258 70.763C248.17 71.115 248.126 71.4597 248.126 71.797H248.379C248.863 71.797 249.439 71.72 250.106 71.566C250.194 71.7127 250.238 71.8887 250.238 72.094C250.238 72.292 250.154 72.457 249.985 72.589C249.816 72.721 249.604 72.787 249.347 72.787C249.34 72.787 248.925 72.7357 248.104 72.633L248.214 78.353C248.214 78.8297 247.932 79.068 247.367 79.068C247.176 79.068 246.927 79.024 246.619 78.936C246.861 77.9753 246.982 76.7323 246.982 75.207ZM251.104 69.817C251.338 69.6997 251.577 69.641 251.819 69.641C252.061 69.641 252.255 69.718 252.402 69.872C252.556 70.026 252.633 70.2533 252.633 70.554C252.633 70.8547 252.614 71.1957 252.578 71.577C253.128 71.577 253.652 71.5 254.151 71.346C254.239 71.4927 254.283 71.665 254.283 71.863C254.283 72.0537 254.195 72.2113 254.019 72.336C253.85 72.4533 253.678 72.512 253.502 72.512C253.326 72.512 253.128 72.49 252.908 72.446C252.688 72.402 252.545 72.3763 252.479 72.369C252.471 72.435 252.449 72.567 252.413 72.765C252.383 72.963 252.358 73.1353 252.336 73.282C252.277 73.6853 252.248 74.118 252.248 74.58C252.248 75.5847 252.574 76.087 253.227 76.087C253.469 76.087 253.747 76.0027 254.063 75.834C254.158 75.9733 254.206 76.153 254.206 76.373C254.206 76.593 254.085 76.7653 253.843 76.89C253.608 77.0073 253.326 77.066 252.996 77.066C251.705 77.066 251.06 76.3327 251.06 74.866C251.06 74.6533 251.089 74.2683 251.148 73.711C251.214 73.1537 251.247 72.7027 251.247 72.358C250.895 72.38 250.612 72.4423 250.4 72.545C250.312 72.413 250.268 72.2627 250.268 72.094C250.268 71.918 250.33 71.775 250.455 71.665C250.579 71.5477 250.733 71.489 250.917 71.489C251.1 71.489 251.221 71.4927 251.28 71.5C251.287 71.4413 251.291 71.3643 251.291 71.269C251.291 70.719 251.228 70.235 251.104 69.817ZM254.552 72.05C254.78 71.6393 255.102 71.434 255.52 71.434C255.792 71.434 256.012 71.5807 256.18 71.874C256.349 72.16 256.466 72.5157 256.532 72.941C256.606 73.359 256.664 73.7843 256.708 74.217C256.818 75.295 256.954 75.8853 257.115 75.988C257.401 75.9147 257.654 75.4783 257.874 74.679C258.094 73.8723 258.204 73.2673 258.204 72.864C258.204 72.4533 258.182 72.127 258.138 71.885C258.395 71.8337 258.615 71.808 258.798 71.808C259.429 71.808 259.744 72.1087 259.744 72.71C259.744 73.6487 259.792 74.415 259.887 75.009C259.99 75.5957 260.111 75.944 260.25 76.054C260.456 76.0393 260.632 75.878 260.778 75.57C260.925 75.262 261.031 74.888 261.097 74.448C261.222 73.6193 261.284 72.985 261.284 72.545C261.284 72.0977 261.262 71.753 261.218 71.511C261.475 71.4597 261.695 71.434 261.878 71.434C262.509 71.434 262.824 71.7347 262.824 72.336C262.824 72.7173 262.747 73.1793 262.593 73.722C262.439 74.2573 262.238 74.7817 261.988 75.295C261.739 75.801 261.435 76.2337 261.075 76.593C260.723 76.9523 260.371 77.132 260.019 77.132C259.616 77.132 259.312 76.8313 259.106 76.23C258.945 75.7753 258.813 75.185 258.71 74.459C258.644 74.701 258.597 74.877 258.567 74.987C258.538 75.097 258.487 75.262 258.413 75.482C258.34 75.702 258.274 75.8707 258.215 75.988C258.157 76.1053 258.076 76.2447 257.973 76.406C257.878 76.5673 257.779 76.6847 257.676 76.758C257.42 76.9633 257.134 77.066 256.818 77.066C256.51 77.066 256.254 76.9267 256.048 76.648C255.85 76.3693 255.711 76.0137 255.63 75.581C255.557 75.1483 255.491 74.7047 255.432 74.25C255.293 73.0913 255 72.358 254.552 72.05ZM268.538 71.819C268.34 72.6623 268.241 73.5093 268.241 74.36C268.241 75.2033 268.337 76.0393 268.527 76.868C268.263 76.956 267.992 77 267.713 77C267.435 77 267.24 76.9193 267.13 76.758C267.02 76.5893 266.965 76.351 266.965 76.043C266.965 75.7277 267.013 75.2987 267.108 74.756C266.588 75.8707 266.085 76.5747 265.601 76.868C265.381 77 265.154 77.066 264.919 77.066C264.362 77.066 263.929 76.8607 263.621 76.45C263.313 76.032 263.159 75.515 263.159 74.899C263.159 73.9603 263.42 73.139 263.94 72.435C264.461 71.7237 265.136 71.368 265.964 71.368C266.8 71.368 267.658 71.5183 268.538 71.819ZM267.097 72.479C266.709 72.3617 266.379 72.303 266.107 72.303C265.557 72.303 265.147 72.424 264.875 72.666C264.626 73.282 264.501 73.909 264.501 74.547C264.501 74.8843 264.553 75.2253 264.655 75.57C264.765 75.9147 264.93 76.087 265.15 76.087C265.407 76.087 265.737 75.7093 266.14 74.954C266.544 74.1987 266.863 73.3737 267.097 72.479ZM271.123 76.868C270.895 76.956 270.653 77 270.397 77C270.14 77 269.931 76.9413 269.77 76.824C269.616 76.6993 269.539 76.5307 269.539 76.318C269.539 76.098 269.572 75.702 269.638 75.13C269.704 74.558 269.737 74.0043 269.737 73.469C269.737 72.9263 269.652 72.292 269.484 71.566C269.718 71.478 269.949 71.434 270.177 71.434C270.404 71.434 270.598 71.511 270.76 71.665C270.928 71.819 271.013 72.0243 271.013 72.281C271.013 72.413 270.991 72.611 270.947 72.875C270.903 73.1317 270.877 73.326 270.87 73.458C271.156 72.8053 271.493 72.2957 271.882 71.929C272.278 71.555 272.67 71.368 273.059 71.368C273.33 71.368 273.546 71.4633 273.708 71.654C273.869 71.8447 273.95 72.0867 273.95 72.38C273.95 72.666 273.876 72.9007 273.73 73.084C273.583 73.26 273.4 73.348 273.18 73.348C272.967 73.348 272.795 73.326 272.663 73.282C272.685 73.194 272.696 73.1133 272.696 73.04C272.696 72.7393 272.589 72.589 272.377 72.589C272.054 72.589 271.75 72.9153 271.464 73.568C271.185 74.2133 270.998 74.8183 270.903 75.383C270.939 75.933 271.013 76.428 271.123 76.868ZM275.523 74.503C275.523 75.031 275.607 75.449 275.776 75.757C275.945 76.0577 276.227 76.208 276.623 76.208C277.019 76.208 277.327 76.076 277.547 75.812C277.774 75.5407 277.888 75.2143 277.888 74.833C278.137 74.833 278.354 74.8953 278.537 75.02C278.72 75.1447 278.812 75.317 278.812 75.537C278.812 75.9917 278.57 76.373 278.086 76.681C277.602 76.9817 277.092 77.132 276.557 77.132C275.721 77.132 275.116 76.9083 274.742 76.461C274.368 76.0063 274.181 75.3353 274.181 74.448C274.181 73.5607 274.43 72.8163 274.929 72.215C275.435 71.6063 276.106 71.302 276.942 71.302C277.514 71.302 277.972 71.434 278.317 71.698C278.669 71.9547 278.845 72.358 278.845 72.908C278.845 73.4507 278.596 73.8613 278.097 74.14C277.606 74.4113 277.004 74.547 276.293 74.547C276.044 74.547 275.787 74.5323 275.523 74.503ZM275.534 73.634C275.754 73.678 275.985 73.7 276.227 73.7C276.755 73.7 277.199 73.601 277.558 73.403C277.602 73.227 277.624 73.0877 277.624 72.985C277.624 72.7283 277.532 72.534 277.349 72.402C277.166 72.27 276.913 72.204 276.59 72.204C276.275 72.204 275.989 72.3067 275.732 72.512C275.6 72.8933 275.534 73.2673 275.534 73.634ZM286.551 71.566C286.58 71.4193 286.595 71.269 286.595 71.115C286.595 70.4037 286.247 70.048 285.55 70.048C285.235 70.048 284.967 70.114 284.747 70.246C284.542 70.488 284.439 70.7777 284.439 71.115C284.439 71.335 284.534 71.5257 284.725 71.687C284.916 71.841 285.15 71.962 285.429 72.05C285.715 72.138 286.023 72.248 286.353 72.38C286.683 72.512 286.987 72.655 287.266 72.809C287.552 72.9557 287.79 73.1793 287.981 73.48C288.172 73.7733 288.267 74.1217 288.267 74.525C288.267 75.295 287.97 75.922 287.376 76.406C286.789 76.89 286.082 77.132 285.253 77.132C284.586 77.132 284.017 76.967 283.548 76.637C283.086 76.2997 282.855 75.8303 282.855 75.229C282.855 74.921 282.947 74.6643 283.13 74.459C283.321 74.2463 283.544 74.14 283.801 74.14C284.065 74.14 284.259 74.173 284.384 74.239C284.325 74.459 284.296 74.657 284.296 74.833C284.296 75.229 284.406 75.5443 284.626 75.779C284.853 76.0063 285.165 76.12 285.561 76.12C285.957 76.12 286.276 76.0173 286.518 75.812C286.76 75.6067 286.881 75.3353 286.881 74.998C286.881 74.6533 286.745 74.371 286.474 74.151C286.21 73.931 285.887 73.755 285.506 73.623C285.125 73.491 284.743 73.3517 284.362 73.205C283.981 73.0583 283.654 72.842 283.383 72.556C283.119 72.2627 282.987 71.896 282.987 71.456C282.987 70.7667 283.284 70.1947 283.878 69.74C284.479 69.2853 285.158 69.058 285.913 69.058C286.47 69.058 286.951 69.1717 287.354 69.399C287.765 69.619 287.97 69.9563 287.97 70.411C287.97 70.741 287.864 71.0233 287.651 71.258C287.438 71.4853 287.171 71.599 286.848 71.599C286.76 71.599 286.661 71.588 286.551 71.566ZM291.166 77.132C290.359 77.132 289.765 76.8973 289.384 76.428C289.002 75.9513 288.812 75.2913 288.812 74.448C288.812 73.5973 289.065 72.8603 289.571 72.237C290.077 71.6137 290.726 71.302 291.518 71.302C293.146 71.302 293.96 72.2187 293.96 74.052C293.96 74.91 293.696 75.6397 293.168 76.241C292.64 76.835 291.972 77.132 291.166 77.132ZM290.374 72.512C290.242 72.9373 290.176 73.3627 290.176 73.788C290.176 74.2133 290.19 74.5433 290.22 74.778C290.249 75.0127 290.304 75.2473 290.385 75.482C290.553 75.9587 290.883 76.197 291.375 76.197C291.873 76.197 292.2 76.065 292.354 75.801C292.515 75.537 292.596 75.13 292.596 74.58C292.596 73.018 292.225 72.237 291.485 72.237C291.059 72.237 290.689 72.3287 290.374 72.512ZM294.946 68.882C295.181 68.794 295.423 68.75 295.672 68.75C295.921 68.75 296.127 68.8343 296.288 69.003C296.457 69.1643 296.541 69.388 296.541 69.674C296.541 69.9527 296.501 70.5173 296.42 71.368C296.347 72.2113 296.31 72.875 296.31 73.359C296.31 74.5543 296.394 75.724 296.563 76.868C296.328 76.956 296.079 77 295.815 77C295.25 77 294.968 76.725 294.968 76.175C294.968 75.911 295.008 75.394 295.089 74.624C295.17 73.8467 295.21 73.2233 295.21 72.754C295.21 71.192 295.122 69.9013 294.946 68.882ZM297.9 75.878L298.01 73.59C298.01 72.8787 297.907 72.204 297.702 71.566C297.907 71.478 298.16 71.434 298.461 71.434C299.048 71.434 299.341 71.7603 299.341 72.413C299.341 72.7797 299.301 73.2967 299.22 73.964C299.139 74.624 299.099 75.1043 299.099 75.405C299.099 75.7717 299.264 75.955 299.594 75.955C299.792 75.955 300.023 75.79 300.287 75.46C300.558 75.1227 300.789 74.7487 300.98 74.338C301.178 73.92 301.295 73.579 301.332 73.315C301.288 72.5083 301.226 71.9253 301.145 71.566C301.38 71.478 301.618 71.434 301.86 71.434C302.109 71.434 302.315 71.511 302.476 71.665C302.645 71.819 302.729 72.0097 302.729 72.237C302.729 72.4643 302.696 72.842 302.63 73.37C302.564 73.898 302.531 74.4517 302.531 75.031C302.531 75.603 302.597 76.2153 302.729 76.868C302.443 76.956 302.186 77 301.959 77C301.504 77 301.277 76.6993 301.277 76.098C301.277 75.834 301.306 75.4673 301.365 74.998C301.072 75.6213 300.712 76.1237 300.287 76.505C299.869 76.879 299.444 77.066 299.011 77.066C298.27 77.066 297.9 76.67 297.9 75.878ZM304.277 69.817C304.512 69.6997 304.75 69.641 304.992 69.641C305.234 69.641 305.429 69.718 305.575 69.872C305.729 70.026 305.806 70.2533 305.806 70.554C305.806 70.8547 305.788 71.1957 305.751 71.577C306.301 71.577 306.826 71.5 307.324 71.346C307.412 71.4927 307.456 71.665 307.456 71.863C307.456 72.0537 307.368 72.2113 307.192 72.336C307.024 72.4533 306.851 72.512 306.675 72.512C306.499 72.512 306.301 72.49 306.081 72.446C305.861 72.402 305.718 72.3763 305.652 72.369C305.645 72.435 305.623 72.567 305.586 72.765C305.557 72.963 305.531 73.1353 305.509 73.282C305.451 73.6853 305.421 74.118 305.421 74.58C305.421 75.5847 305.748 76.087 306.4 76.087C306.642 76.087 306.921 76.0027 307.236 75.834C307.332 75.9733 307.379 76.153 307.379 76.373C307.379 76.593 307.258 76.7653 307.016 76.89C306.782 77.0073 306.499 77.066 306.169 77.066C304.879 77.066 304.233 76.3327 304.233 74.866C304.233 74.6533 304.263 74.2683 304.321 73.711C304.387 73.1537 304.42 72.7027 304.42 72.358C304.068 72.38 303.786 72.4423 303.573 72.545C303.485 72.413 303.441 72.2627 303.441 72.094C303.441 71.918 303.504 71.775 303.628 71.665C303.753 71.5477 303.907 71.489 304.09 71.489C304.274 71.489 304.395 71.4927 304.453 71.5C304.461 71.4413 304.464 71.3643 304.464 71.269C304.464 70.719 304.402 70.235 304.277 69.817ZM308.232 71.533C308.467 71.467 308.702 71.434 308.936 71.434C309.178 71.434 309.384 71.5073 309.552 71.654C309.721 71.8007 309.805 71.9913 309.805 72.226C309.805 72.4533 309.765 72.853 309.684 73.425C309.611 73.9897 309.574 74.4297 309.574 74.745C309.574 75.5663 309.651 76.274 309.805 76.868C309.578 76.956 309.332 77 309.068 77C308.804 77 308.595 76.9413 308.441 76.824C308.287 76.6993 308.21 76.5233 308.21 76.296C308.21 76.0613 308.254 75.68 308.342 75.152C308.43 74.624 308.474 74.1877 308.474 73.843C308.474 72.9263 308.394 72.1563 308.232 71.533ZM308.375 69.047C308.632 68.9297 308.885 68.871 309.134 68.871C309.384 68.871 309.567 68.937 309.684 69.069C309.809 69.1937 309.871 69.3807 309.871 69.63C309.871 69.8793 309.787 70.0993 309.618 70.29C309.457 70.4807 309.244 70.576 308.98 70.576C308.438 70.576 308.166 70.2937 308.166 69.729C308.166 69.4797 308.236 69.2523 308.375 69.047ZM312.994 77.132C312.187 77.132 311.593 76.8973 311.212 76.428C310.831 75.9513 310.64 75.2913 310.64 74.448C310.64 73.5973 310.893 72.8603 311.399 72.237C311.905 71.6137 312.554 71.302 313.346 71.302C314.974 71.302 315.788 72.2187 315.788 74.052C315.788 74.91 315.524 75.6397 314.996 76.241C314.468 76.835 313.801 77.132 312.994 77.132ZM312.202 72.512C312.07 72.9373 312.004 73.3627 312.004 73.788C312.004 74.2133 312.019 74.5433 312.048 74.778C312.077 75.0127 312.132 75.2473 312.213 75.482C312.382 75.9587 312.712 76.197 313.203 76.197C313.702 76.197 314.028 76.065 314.182 75.801C314.343 75.537 314.424 75.13 314.424 74.58C314.424 73.018 314.054 72.237 313.313 72.237C312.888 72.237 312.517 72.3287 312.202 72.512ZM321.779 72.556L321.669 74.976C321.669 75.6433 321.772 76.296 321.977 76.934C321.772 77.022 321.537 77.066 321.273 77.066C320.65 77.066 320.338 76.7177 320.338 76.021C320.338 75.7057 320.378 75.1777 320.459 74.437C320.54 73.689 320.58 73.2197 320.58 73.029C320.58 72.6623 320.415 72.479 320.085 72.479C319.843 72.479 319.568 72.655 319.26 73.007C318.959 73.3517 318.699 73.7403 318.479 74.173C318.266 74.5983 318.142 74.9503 318.105 75.229C318.134 75.801 318.208 76.3473 318.325 76.868C318.09 76.956 317.845 77 317.588 77C317.339 77 317.133 76.9413 316.972 76.824C316.818 76.6993 316.741 76.5307 316.741 76.318C316.741 76.098 316.774 75.7093 316.84 75.152C316.906 74.5873 316.939 74.03 316.939 73.48C316.939 72.9227 316.855 72.2847 316.686 71.566C316.921 71.478 317.17 71.434 317.434 71.434C317.698 71.434 317.911 71.511 318.072 71.665C318.241 71.819 318.325 72.0097 318.325 72.237C318.325 72.4643 318.296 72.8273 318.237 73.326C318.516 72.8053 318.879 72.3507 319.326 71.962C319.773 71.566 320.221 71.368 320.668 71.368C321.409 71.368 321.779 71.764 321.779 72.556ZM324.077 74.998C324.055 75.1007 324.044 75.185 324.044 75.251C324.044 75.5517 324.132 75.7827 324.308 75.944C324.492 76.1053 324.734 76.186 325.034 76.186C325.342 76.186 325.595 76.131 325.793 76.021C325.999 75.9037 326.101 75.7313 326.101 75.504C326.101 75.2767 325.991 75.097 325.771 74.965C325.559 74.8257 325.298 74.7157 324.99 74.635C324.69 74.5543 324.385 74.4663 324.077 74.371C323.769 74.2683 323.505 74.1107 323.285 73.898C323.073 73.6853 322.966 73.4177 322.966 73.095C322.966 72.589 323.234 72.1637 323.769 71.819C324.305 71.4743 324.866 71.302 325.452 71.302C326.098 71.302 326.589 71.434 326.926 71.698C327.124 71.852 327.223 72.0573 327.223 72.314C327.223 72.5633 327.124 72.7687 326.926 72.93C326.736 73.084 326.501 73.161 326.222 73.161C326.164 73.161 326.09 73.1537 326.002 73.139C326.024 73.0437 326.035 72.9593 326.035 72.886C326.035 72.6733 325.955 72.512 325.793 72.402C325.632 72.292 325.412 72.237 325.133 72.237C324.862 72.237 324.613 72.292 324.385 72.402C324.297 72.5193 324.253 72.6697 324.253 72.853C324.253 73.0363 324.36 73.1867 324.572 73.304C324.785 73.414 325.042 73.513 325.342 73.601C325.65 73.6817 325.958 73.777 326.266 73.887C326.574 73.9897 326.835 74.1547 327.047 74.382C327.26 74.602 327.366 74.8807 327.366 75.218C327.366 75.768 327.091 76.2263 326.541 76.593C325.999 76.9523 325.438 77.132 324.858 77.132C324.279 77.132 323.799 77.0293 323.417 76.824C323.043 76.6113 322.856 76.2923 322.856 75.867C322.856 75.603 322.952 75.3903 323.142 75.229C323.34 75.0603 323.579 74.976 323.857 74.976C323.916 74.976 323.989 74.9833 324.077 74.998ZM331.308 69.542C332.129 69.2633 332.98 69.124 333.86 69.124C334.74 69.124 335.469 69.311 336.049 69.685C336.628 70.059 336.918 70.631 336.918 71.401C336.918 72.171 336.646 72.82 336.104 73.348C335.561 73.8687 334.908 74.129 334.146 74.129C333.588 74.129 333.31 73.9163 333.31 73.491C333.31 73.359 333.335 73.2197 333.387 73.073C333.585 73.1243 333.764 73.15 333.926 73.15C334.432 73.15 334.813 73.0107 335.07 72.732C335.334 72.4533 335.466 72.0683 335.466 71.577C335.466 71.0783 335.326 70.708 335.048 70.466C334.769 70.224 334.38 70.103 333.882 70.103C333.625 70.103 333.313 70.147 332.947 70.235C332.888 71.137 332.859 71.9363 332.859 72.633C332.859 74.5837 332.936 75.9953 333.09 76.868C332.855 76.956 332.606 77 332.342 77C332.078 77 331.847 76.9157 331.649 76.747C331.458 76.5783 331.363 76.3547 331.363 76.076C331.363 75.7973 331.399 75.3133 331.473 74.624C331.546 73.9273 331.583 73.37 331.583 72.952C331.583 71.676 331.491 70.5393 331.308 69.542ZM342.009 75.262C341.752 75.7607 341.429 76.186 341.041 76.538C340.652 76.89 340.263 77.066 339.875 77.066C339.486 77.066 339.185 76.934 338.973 76.67C338.767 76.3987 338.621 76.054 338.533 75.636C338.445 75.2107 338.364 74.7743 338.291 74.327C338.225 73.8797 338.107 73.4433 337.939 73.018C337.77 72.5927 337.539 72.2737 337.246 72.061C337.341 71.885 337.484 71.7383 337.675 71.621C337.865 71.4963 338.071 71.434 338.291 71.434C338.635 71.434 338.914 71.6577 339.127 72.105C339.339 72.545 339.475 73.0327 339.534 73.568C339.6 74.1033 339.669 74.624 339.743 75.13C339.823 75.6287 339.915 75.9147 340.018 75.988C340.267 75.9733 340.483 75.8157 340.667 75.515C340.857 75.207 340.997 74.8367 341.085 74.404C341.246 73.612 341.327 72.9923 341.327 72.545C341.327 72.0977 341.305 71.753 341.261 71.511C341.517 71.4597 341.737 71.434 341.921 71.434C342.551 71.434 342.867 71.7347 342.867 72.336C342.867 72.7173 342.786 73.1757 342.625 73.711C342.471 74.239 342.265 74.756 342.009 75.262ZM343.98 69.817C344.215 69.6997 344.453 69.641 344.695 69.641C344.937 69.641 345.132 69.718 345.278 69.872C345.432 70.026 345.509 70.2533 345.509 70.554C345.509 70.8547 345.491 71.1957 345.454 71.577C346.004 71.577 346.529 71.5 347.027 71.346C347.115 71.4927 347.159 71.665 347.159 71.863C347.159 72.0537 347.071 72.2113 346.895 72.336C346.727 72.4533 346.554 72.512 346.378 72.512C346.202 72.512 346.004 72.49 345.784 72.446C345.564 72.402 345.421 72.3763 345.355 72.369C345.348 72.435 345.326 72.567 345.289 72.765C345.26 72.963 345.234 73.1353 345.212 73.282C345.154 73.6853 345.124 74.118 345.124 74.58C345.124 75.5847 345.451 76.087 346.103 76.087C346.345 76.087 346.624 76.0027 346.939 75.834C347.035 75.9733 347.082 76.153 347.082 76.373C347.082 76.593 346.961 76.7653 346.719 76.89C346.485 77.0073 346.202 77.066 345.872 77.066C344.582 77.066 343.936 76.3327 343.936 74.866C343.936 74.6533 343.966 74.2683 344.024 73.711C344.09 73.1537 344.123 72.7027 344.123 72.358C343.771 72.38 343.489 72.4423 343.276 72.545C343.188 72.413 343.144 72.2627 343.144 72.094C343.144 71.918 343.207 71.775 343.331 71.665C343.456 71.5477 343.61 71.489 343.793 71.489C343.977 71.489 344.098 71.4927 344.156 71.5C344.164 71.4413 344.167 71.3643 344.167 71.269C344.167 70.719 344.105 70.235 343.98 69.817ZM351.172 75.526C351.406 75.4013 351.645 75.339 351.887 75.339C352.429 75.339 352.701 75.592 352.701 76.098C352.701 76.3693 352.609 76.6003 352.426 76.791C352.242 76.9743 352.022 77.066 351.766 77.066C351.509 77.066 351.311 76.9927 351.172 76.846C351.04 76.6993 350.974 76.5013 350.974 76.252C350.974 75.9953 351.04 75.7533 351.172 75.526ZM353.909 69.322C354.144 69.234 354.397 69.19 354.668 69.19C355.321 69.19 355.647 69.487 355.647 70.081C355.647 70.4037 355.61 70.9353 355.537 71.676C355.464 72.4093 355.427 73.172 355.427 73.964C355.427 74.756 355.453 75.4123 355.504 75.933C355.702 75.955 355.9 75.966 356.098 75.966C357.066 75.966 357.917 75.8047 358.65 75.482C358.738 75.68 358.782 75.9037 358.782 76.153C358.782 76.4023 358.694 76.6187 358.518 76.802C358.349 76.978 358.14 77.066 357.891 77.066C357.37 77.066 356.23 77.022 354.47 76.934C354.331 76.9267 354.21 76.8863 354.107 76.813C354.004 76.7323 353.953 76.6333 353.953 76.516C353.953 76.1273 353.982 75.471 354.041 74.547C354.107 73.623 354.14 72.7723 354.14 71.995C354.14 71.2103 354.063 70.3193 353.909 69.322ZM359.9 69.817C360.135 69.6997 360.373 69.641 360.615 69.641C360.857 69.641 361.052 69.718 361.198 69.872C361.352 70.026 361.429 70.2533 361.429 70.554C361.429 70.8547 361.411 71.1957 361.374 71.577C361.924 71.577 362.449 71.5 362.947 71.346C363.035 71.4927 363.079 71.665 363.079 71.863C363.079 72.0537 362.991 72.2113 362.815 72.336C362.647 72.4533 362.474 72.512 362.298 72.512C362.122 72.512 361.924 72.49 361.704 72.446C361.484 72.402 361.341 72.3763 361.275 72.369C361.268 72.435 361.246 72.567 361.209 72.765C361.18 72.963 361.154 73.1353 361.132 73.282C361.074 73.6853 361.044 74.118 361.044 74.58C361.044 75.5847 361.371 76.087 362.023 76.087C362.265 76.087 362.544 76.0027 362.859 75.834C362.955 75.9733 363.002 76.153 363.002 76.373C363.002 76.593 362.881 76.7653 362.639 76.89C362.405 77.0073 362.122 77.066 361.792 77.066C360.502 77.066 359.856 76.3327 359.856 74.866C359.856 74.6533 359.886 74.2683 359.944 73.711C360.01 73.1537 360.043 72.7027 360.043 72.358C359.691 72.38 359.409 72.4423 359.196 72.545C359.108 72.413 359.064 72.2627 359.064 72.094C359.064 71.918 359.127 71.775 359.251 71.665C359.376 71.5477 359.53 71.489 359.713 71.489C359.897 71.489 360.018 71.4927 360.076 71.5C360.084 71.4413 360.087 71.3643 360.087 71.269C360.087 70.719 360.025 70.235 359.9 69.817ZM367.298 68.882C367.533 68.794 367.775 68.75 368.024 68.75C368.274 68.75 368.479 68.8343 368.64 69.003C368.802 69.1643 368.882 69.3697 368.882 69.619C368.882 69.861 368.846 70.4403 368.772 71.357C368.699 72.2663 368.662 73.1647 368.662 74.052C368.662 74.932 368.75 75.8707 368.926 76.868C368.662 76.956 368.387 77 368.101 77C367.617 77 367.375 76.659 367.375 75.977C367.375 75.7497 367.423 75.3427 367.518 74.756C367.21 75.4087 366.935 75.8927 366.693 76.208C366.459 76.5233 366.228 76.747 366 76.879C365.78 77.0037 365.546 77.066 365.296 77.066C364.739 77.066 364.31 76.8607 364.009 76.45C363.716 76.0393 363.569 75.5333 363.569 74.932C363.569 74.3307 363.676 73.766 363.888 73.238C364.108 72.7027 364.435 72.259 364.867 71.907C365.307 71.5477 365.773 71.368 366.264 71.368C366.756 71.368 367.181 71.434 367.54 71.566C367.526 70.62 367.445 69.7253 367.298 68.882ZM367.54 72.501C367.181 72.369 366.792 72.303 366.374 72.303C365.956 72.303 365.597 72.424 365.296 72.666C365.047 73.26 364.922 73.9237 364.922 74.657C364.922 74.9943 364.97 75.317 365.065 75.625C365.161 75.933 365.318 76.087 365.538 76.087C365.876 76.087 366.257 75.7093 366.682 74.954C367.115 74.1987 367.401 73.381 367.54 72.501ZM370.121 75.526C370.356 75.4013 370.594 75.339 370.836 75.339C371.379 75.339 371.65 75.592 371.65 76.098C371.65 76.3693 371.558 76.6003 371.375 76.791C371.192 76.9743 370.972 77.066 370.715 77.066C370.458 77.066 370.26 76.9927 370.121 76.846C369.989 76.6993 369.923 76.5013 369.923 76.252C369.923 75.9953 369.989 75.7533 370.121 75.526Z" fill="#29D529"/>
<rect y="28" width="11" height="2" fill="#F1C93B"/>
<rect y="32" width="11" height="2" fill="#F1C93B"/>
<rect y="36" width="11" height="2" fill="#F1C93B"/>
<rect y="40" width="11" height="2" fill="#F1C93B"/>
<circle cx="372.75" cy="13.75" r="1.75" fill="white"/>
<circle cx="366.6" cy="11.6" r="2.6" fill="#0ECE0E"/>
<circle cx="369.6" cy="19.6" r="2.6" fill="#0ECE0E"/>
<circle cx="378.6" cy="17.6" r="2.6" fill="#0ECE0E"/>
<circle cx="376.6" cy="26.6" r="2.6" fill="#F0F0F0"/>
<defs>
<linearGradient id="paint0_linear_2_61" x1="115.5" y1="22" x2="115.5" y2="30.7294" gradientUnits="userSpaceOnUse">
<stop stop-color="#0ECE0E"/>
<stop offset="1" stop-color="#32A532"/>
</linearGradient>
<linearGradient id="paint1_linear_2_61" x1="107.267" y1="38.6353" x2="107.267" y2="47.3647" gradientUnits="userSpaceOnUse">
<stop stop-color="#0ECE0E"/>
<stop offset="1" stop-color="#32A532"/>
</linearGradient>
<linearGradient id="paint2_linear_2_61" x1="115.5" y1="55.2706" x2="115.5" y2="64" gradientUnits="userSpaceOnUse">
<stop stop-color="#0ECE0E"/>
<stop offset="1" stop-color="#32A532"/>
</linearGradient>
<linearGradient id="paint3_linear_2_61" x1="262" y1="22" x2="262" y2="34" gradientUnits="userSpaceOnUse">
<stop stop-color="#0ECE0E"/>
<stop offset="1" stop-color="#29D529"/>
</linearGradient>
</defs>
</svg>
